<svg xmlns="http://www.w3.org/2000/svg" width="70" height="60.828" viewBox="0 0 70 60.828"><path d="M267.586,398.821c6.212,1.853,11.572,1.027,15.532-4.209a13.564,13.564,0,0,0-3.4-19.854c-6.688-4.238-14.879-1.667-18.972,5.9-3.4,6.29-3.563,13.045-2.53,19.9,2,13.254,9.738,22.987,19.526,31.407,2.518,2.166,5.1,2.072,6.909-.049,1.992-2.336,1.826-4.787-.8-7.036-5.216-4.463-9.975-9.294-13.1-15.493C269.1,406.119,267.551,402.781,267.586,398.821Zm45.4,11.743c3.168,5.79,7.932,10.167,12.707,14.553,2.353,2.162,2.508,4.686.593,6.919-1.62,1.888-4.55,1.98-6.757.045-2.274-1.995-4.523-4.036-6.606-6.225-9.222-9.687-14.309-21.035-13.5-34.629a22.047,22.047,0,0,1,5.662-14.214A12.167,12.167,0,0,1,318.4,373.4a13.177,13.177,0,0,1,9.246,12.307c.235,8.608-7.5,16.778-18.786,12.964A35.542,35.542,0,0,0,312.988,410.564Z" transform="translate(-257.655 -372.722)" fill="#fcf8f7"/></svg>