<svg xmlns="http://www.w3.org/2000/svg" width="44.981" height="45" viewBox="0 0 44.981 45"><path d="M98.391,64.428A12.144,12.144,0,1,1,86.234,76.559,12.126,12.126,0,0,1,98.391,64.428Zm-8.65,12.078a8.637,8.637,0,1,0,8.7-8.571A8.638,8.638,0,0,0,89.741,76.507Zm2.515-13.852a30.284,30.284,0,0,0-3.128-5.336,1.671,1.671,0,0,0-2.786,1.611,23.5,23.5,0,0,0,3.075,5.354,1.5,1.5,0,0,0,1.906.294,1.765,1.765,0,0,0,.994-1.551A1.361,1.361,0,0,0,92.256,62.654Zm18.2,5.193a1.651,1.651,0,0,0,.088,1.944,1.493,1.493,0,0,0,1.824.62,32.971,32.971,0,0,0,5.155-2.97,1.507,1.507,0,0,0,.488-1.867,1.623,1.623,0,0,0-1.595-1.1C115.661,64.46,110.842,67.168,110.452,67.848Zm-2.989-3.662a33.481,33.481,0,0,0,2.895-5.055,1.54,1.54,0,0,0-.764-2.079,1.523,1.523,0,0,0-2.158.469,54.759,54.759,0,0,0-2.84,4.952,1.658,1.658,0,0,0,1.629,2.28A1.513,1.513,0,0,0,107.463,64.186Zm-21.479,3.3A32.866,32.866,0,0,0,80.93,64.59a1.686,1.686,0,0,0-1.6,2.931,53.971,53.971,0,0,0,4.955,2.836,1.66,1.66,0,0,0,2.275-1.637A1.524,1.524,0,0,0,85.985,67.485ZM84.071,82.867c-1.516.771-2.985,1.64-4.438,2.526a1.713,1.713,0,0,0-.8,2.381,1.76,1.76,0,0,0,2.535.619c1.43-.765,2.82-1.6,4.219-2.423a1.793,1.793,0,0,0,.967-1.586A1.684,1.684,0,0,0,84.071,82.867Zm33.272,2.675c-1.563-.939-3.144-1.852-4.748-2.718a1.524,1.524,0,0,0-2.117.626,1.544,1.544,0,0,0,.385,2.272,45.311,45.311,0,0,0,4.843,2.788,1.647,1.647,0,0,0,2.405-1.528A1.543,1.543,0,0,0,117.343,85.543ZM89.426,95.519c.935-1.566,1.85-3.145,2.708-4.754a1.7,1.7,0,0,0-2.843-1.777A25.6,25.6,0,0,0,86.4,94.04,1.626,1.626,0,0,0,88,96.306,1.567,1.567,0,0,0,89.426,95.519Zm17.647-6.855a1.43,1.43,0,0,0-1.919.074,1.494,1.494,0,0,0-.614,1.826,32.656,32.656,0,0,0,2.975,5.151,1.5,1.5,0,0,0,1.866.484c.708-.268,1.086-.822,1.1-1.938A21.538,21.538,0,0,0,107.072,88.664ZM100.1,55.85a1.675,1.675,0,0,0-1.761-1.777,1.632,1.632,0,0,0-1.67,1.742c-.05,1.709-.044,3.421,0,5.13a1.666,1.666,0,0,0,1.7,1.731,1.716,1.716,0,0,0,1.734-1.818c.041-.812.008-1.628.007-2.443C100.1,57.56,100.143,56.7,100.1,55.85ZM80.143,78.29c.9,0,1.8.05,2.687-.013a1.617,1.617,0,0,0,1.64-1.769,1.584,1.584,0,0,0-1.642-1.639c-1.749-.058-3.5-.063-5.253,0a1.594,1.594,0,0,0-1.693,1.708,1.621,1.621,0,0,0,1.7,1.71c.851.063,1.71.013,2.565.013Zm36.463.006c.855,0,1.713.048,2.564-.012a1.61,1.61,0,0,0,1.692-1.707,1.589,1.589,0,0,0-1.683-1.713c-1.707-.063-3.42-.055-5.128-.006a1.718,1.718,0,1,0-.009,3.435c.853.039,1.709.008,2.564.008ZM100.1,94.74c0-.855.039-1.712-.01-2.564a1.627,1.627,0,0,0-1.72-1.694,1.6,1.6,0,0,0-1.7,1.705q-.077,2.563,0,5.129A1.716,1.716,0,1,0,100.1,97.3c.045-.853.009-1.709.009-2.564Z" transform="translate(-75.882 -54.07)" fill="#fcf8f7"/></svg>