<svg xmlns="http://www.w3.org/2000/svg" width="46.794" height="35.821" viewBox="0 0 46.794 35.821"><path d="M580.725,113.825c.171-4.378,1.8-7.935,5.954-9.863,4.528-2.105,8.67-1.227,12.383,2a5.658,5.658,0,0,1,.651.607c.575.687,1.077.586,1.687-.006a12.7,12.7,0,0,1,5.482-3.347,10.515,10.515,0,0,1,13.422,9.743,12.176,12.176,0,0,1-.225,3.544c-.154.669-.088.994.694,1.115,3.249.5,5.64,2.155,6.483,5.453.854,3.342-.453,6.072-2.844,8.346a17.906,17.906,0,0,1-5.691,3.3,78.558,78.558,0,0,0-8.521,3.668c-.94.528-1.61.187-2.075-.728-.6-1.171-1.218-2.328-1.811-3.5-.411-.812-.873-.939-1.533-.238q-1.351,1.435-2.766,2.81a1.829,1.829,0,0,1-2.9.017c-3.405-3.828-7.629-6.727-11.387-10.152-3.114-2.839-5.809-5.949-6.742-10.234A14.661,14.661,0,0,1,580.725,113.825Zm35.978.291c.029-3.078-.941-5.438-3.559-6.777a6.981,6.981,0,0,0-7.784.616,18.549,18.549,0,0,0-3.044,2.871c-1.27,1.465-2.263,1.477-3.552-.014a15.486,15.486,0,0,0-3.573-3.22,6.936,6.936,0,0,0-10.794,5.689,9.407,9.407,0,0,0,1.033,4.915,21.844,21.844,0,0,0,5.416,6.339c2.563,2.218,5.2,4.35,7.743,6.59,1.995,1.756,1.892,1.73,3.9.069,1.087-.9,1.1-1.591.411-2.746a12.63,12.63,0,0,1-2.073-7.723,7.4,7.4,0,0,1,8.6-6.927,7.5,7.5,0,0,1,5.385,3.858c.167.262.221.725.67.636.323-.064.358-.439.478-.705A7.87,7.87,0,0,0,616.7,114.116Z" transform="translate(-580.725 -102.818)" fill="#fcf8f7"/></svg>