<svg xmlns="http://www.w3.org/2000/svg" width="37.661" height="45" viewBox="0 0 37.661 45"><path d="M350.9,84.867c-.963-.06-1.928-.095-2.887-.189-.641-.063-1.133.062-1.249.764-.113.687.4.953.924,1.035,4.953.78,9.793.9,13.952-2.6a9.586,9.586,0,0,1,4-2.114,4,4,0,0,1,2.622.135,1.17,1.17,0,0,1,.387,2.043c-3.5,2.236-6.694,4.95-10.459,6.763a18.2,18.2,0,0,1-13.979.834,24.972,24.972,0,0,0-9.561-1.1c-.874.061-1.259-.193-1.44-1.063-.514-2.471-1.088-4.929-1.684-7.382-.178-.731-.065-1.117.747-1.224a36.46,36.46,0,0,0,6.359-1.595,12.764,12.764,0,0,1,7.793.053,28.582,28.582,0,0,0,11.576.719c1.4-.145,1.912.018,2.2,1.024a2,2,0,0,1-1.338,2.479,19.7,19.7,0,0,1-7.4,1.381H350.9ZM336.956,60.29a16.187,16.187,0,0,0,6.746,5.128,1.429,1.429,0,0,1,1.074,1.647,29.476,29.476,0,0,0,1.072,8.919c.116.443.225.864.744,1.01.82.231,1.632.494,2.457.709.783.2,1.015-.023.722-.848-.447-1.257-.788-2.551-1.17-3.83-.329-1.1.6-1.52,1.206-2.036s.892.249,1.22.558a4.3,4.3,0,0,0,5.406.794,11.013,11.013,0,0,0,3.086-2.524,7.42,7.42,0,0,1,4.276-2.628c.811-.137.717-.547.313-1.087a10.564,10.564,0,0,0-11.913-3.443,4.157,4.157,0,0,0-2.754,2.982c-.117.5-.345,1.106.075,1.481.444.4.892-.122,1.3-.322,1.968-.97,3.915-2,6.208-1.894.487.023,1.021-.059,1.433.367-.1.1-.151.176-.212.189A21.653,21.653,0,0,0,348.8,69.99c-.715.6-.779-.094-.832-.559-.677-5.921.262-11.4,4.416-15.99.265-.292.706-.607.374-1.036-.376-.487-.808-.139-1.164.125A15.568,15.568,0,0,0,349.041,55c-.23.27-.483.515-.83.177a.73.73,0,0,1-.256-.882c.842-2.033.669-2.729-1.042-4.112a5.117,5.117,0,0,1-1.789-2.221c-.158-.443-.419-.556-.841-.221-1.988,1.577-2.248,5.776-.448,7.5.42.4.957.8,1.478.433.594-.417-.067-.844-.248-1.225a5.637,5.637,0,0,1-.685-2.1c-.014-.261-.141-.6.346-.771a29.963,29.963,0,0,0,2.831,4.742c.293.375.051.705-.133,1.023a18.871,18.871,0,0,0-2.254,6.135c-.155.853-.477,1.018-1.278.688s-.844-.714-.472-1.436c.934-1.815.677-2.606-1.065-3.659a14.163,14.163,0,0,0-3.374-1.429,5.723,5.723,0,0,1-3.194-1.895c-.288-.382-.665-.57-.973-.047-1.992,3.39-1.846,7.552,1.3,9.953a4.126,4.126,0,0,0,3.38.732c.364-.066.8-.148.9-.549s-.356-.5-.6-.7a13.545,13.545,0,0,1-3.03-3.234,2.613,2.613,0,0,1-.52-2.113A.946.946,0,0,1,336.956,60.29Z" transform="translate(-331.446 -47.546)" fill="#fcf8f7"/></svg>